<svg xmlns="http://www.w3.org/2000/svg" class="MuiSvgIcon-root MuiSvgIcon-fontSizeMedium css-vubbuv" focusable="false" aria-hidden="true" viewBox="0 0 80 80"><g fill="#000000"><path d="M59,16h2c1.66,0,3,1.34,3,3v2c0,1.66-1.34,3-3,3h-2c-1.66,0-3-1.34-3-3v-2c0-1.66,1.34-3,3-3Zm1,16h-12v-12c0-2.21-1.79-4-4-4s-4,1.79-4,4v4h-4c-2.21,0-4,1.79-4,4s1.79,4,4,4h4v4c0,2.21,1.79,4,4,4h4v4c0,2.21,1.79,4,4,4h4v8h-4c-2.21,0-4,1.79-4,4s1.79,4,4,4h8c2.21,0,4-1.79,4-4v-24c0-2.21-1.79-4-4-4Zm-40,0c2.21,0,4-1.79,4-4v-4h4c2.21,0,4-1.79,4-4s-1.79-4-4-4h-8c-2.21,0-4,1.79-4,4v8c0,2.21,1.79,4,4,4Zm24,16h-4v-4c0-2.21-1.79-4-4-4h-4v-4c0-2.21-1.79-4-4-4s-4,1.79-4,4v4h-4c-2.21,0-4,1.79-4,4v16c0,2.21,1.79,4,4,4h16c2.21,0,4-1.79,4-4v-4h4c2.21,0,4-1.79,4-4s-1.79-4-4-4Zm-12,8h-8v-8h8v8Z"/></g></svg>