<svg xmlns="http://www.w3.org/2000/svg" class="MuiSvgIcon-root MuiSvgIcon-fontSizeMedium css-vubbuv" focusable="false" aria-hidden="true" viewBox="0 0 80 80"><g fill="#000000"><path d="M47.91,32c.09-.33,.09-16,.09-16h-2c-3.31,0-6,2.69-6,6v2h-2c-3.31,0-6,2.69-6,6v2h8v8h8v8h8v8h-2c-3.31,0-6,2.69-6,6v2h10c3.31,0,6-2.69,6-6h0v-26h-16.09Zm14.09-16c-3.31,0-6,2.69-6,6v2h2c3.31,0,6-2.69,6-6v-2h-2ZM24,26v-2h2c3.31,0,6-2.69,6-6v-2h-10c-3.31,0-6,2.69-6,6v10h2c3.31,0,6-2.69,6-6Zm16,14h-8v-8h-2c-3.31,0-6,2.69-6,6v2h-2c-3.31,0-6,2.69-6,6v18h18c3.31,0,6-2.69,6-6h0v-2h2c3.31,0,6-2.69,6-6v-2h-8v-8Zm-16,16v-8h8v8h-8Z"/></g></svg>