<svg xmlns="http://www.w3.org/2000/svg" class="MuiSvgIcon-root MuiSvgIcon-fontSizeMedium css-vubbuv" focusable="false" aria-hidden="true" viewBox="0 0 80 80"><g fill="#000000"><path d="M48,32V16h-6c-1.1,0-2,.9-2,2v6h-6c-1.1,0-2,.9-2,2v6h8v8h8v8h8v8h-6c-1.1,0-2,.9-2,2v6h14c1.1,0,2-.9,2-2v-30h-16Zm10-16c-1.1,0-2,.9-2,2v6h6c1.1,0,2-.9,2-2v-6h-6ZM24,30v-6h6c1.1,0,2-.9,2-2v-6h-14c-1.1,0-2,.9-2,2v14h6c1.1,0,2-.9,2-2Zm16,10h-8v-8h-6c-1.1,0-2,.9-2,2v6h-6c-1.1,0-2,.9-2,2v22h22c1.1,0,2-.9,2-2v-6h6c1.1,0,2-.9,2-2v-6h-8v-8Zm-8,16h-8v-8h8v8Z"/></g></svg>